<mxfile host="app.diagrams.net" modified="2023-10-17T14:36:08.537Z" agent="Mozilla/5.0 (Windows NT 10.0; Win64; x64) AppleWebKit/537.36 (KHTML, like Gecko) Chrome/117.0.0.0 Safari/537.36" etag="tuawxzd2VZn22kmtIFar" version="22.0.4" type="device">
  <diagram name="Page-1" id="nuYPNU_jptHLMPksgNSQ">
    <mxGraphModel dx="1050" dy="1681" grid="1" gridSize="10" guides="1" tooltips="1" connect="1" arrows="1" fold="1" page="1" pageScale="1" pageWidth="850" pageHeight="1100" math="0" shadow="0">
      <root>
        <mxCell id="0" />
        <mxCell id="1" parent="0" />
        <mxCell id="cG1cPqBJCj5mjhicXPr7-71" value="" style="shape=folder;fontStyle=1;spacingTop=10;tabWidth=40;tabHeight=14;tabPosition=left;html=1;whiteSpace=wrap;" vertex="1" parent="1">
          <mxGeometry x="90" y="20" width="400" height="370" as="geometry" />
        </mxCell>
        <mxCell id="cG1cPqBJCj5mjhicXPr7-78" value="" style="shape=folder;fontStyle=1;spacingTop=10;tabWidth=40;tabHeight=14;tabPosition=left;html=1;whiteSpace=wrap;" vertex="1" parent="1">
          <mxGeometry x="530" y="12.25" width="290" height="145.5" as="geometry" />
        </mxCell>
        <mxCell id="cG1cPqBJCj5mjhicXPr7-75" value="" style="shape=folder;fontStyle=1;spacingTop=10;tabWidth=40;tabHeight=14;tabPosition=left;html=1;whiteSpace=wrap;" vertex="1" parent="1">
          <mxGeometry x="507.5" y="-145" width="302.5" height="145.5" as="geometry" />
        </mxCell>
        <mxCell id="cG1cPqBJCj5mjhicXPr7-73" value="" style="shape=folder;fontStyle=1;spacingTop=10;tabWidth=40;tabHeight=14;tabPosition=left;html=1;whiteSpace=wrap;" vertex="1" parent="1">
          <mxGeometry y="-260" width="407.5" height="270" as="geometry" />
        </mxCell>
        <mxCell id="cG1cPqBJCj5mjhicXPr7-68" value="" style="shape=folder;fontStyle=1;spacingTop=10;tabWidth=40;tabHeight=14;tabPosition=left;html=1;whiteSpace=wrap;" vertex="1" parent="1">
          <mxGeometry x="92.5" y="460" width="447.5" height="260" as="geometry" />
        </mxCell>
        <mxCell id="cG1cPqBJCj5mjhicXPr7-9" style="edgeStyle=orthogonalEdgeStyle;rounded=0;orthogonalLoop=1;jettySize=auto;html=1;entryX=0.5;entryY=1;entryDx=0;entryDy=0;endArrow=block;endFill=0;" edge="1" parent="1" source="cG1cPqBJCj5mjhicXPr7-3" target="cG1cPqBJCj5mjhicXPr7-8">
          <mxGeometry relative="1" as="geometry" />
        </mxCell>
        <mxCell id="cG1cPqBJCj5mjhicXPr7-30" style="edgeStyle=orthogonalEdgeStyle;rounded=0;orthogonalLoop=1;jettySize=auto;html=1;entryX=0;entryY=0.5;entryDx=0;entryDy=0;endArrow=open;endFill=0;" edge="1" parent="1" source="cG1cPqBJCj5mjhicXPr7-3" target="cG1cPqBJCj5mjhicXPr7-23">
          <mxGeometry relative="1" as="geometry">
            <mxPoint x="570" y="-45" as="targetPoint" />
            <Array as="points">
              <mxPoint x="473" y="-47" />
            </Array>
          </mxGeometry>
        </mxCell>
        <mxCell id="cG1cPqBJCj5mjhicXPr7-36" style="edgeStyle=orthogonalEdgeStyle;rounded=0;orthogonalLoop=1;jettySize=auto;html=1;exitX=1;exitY=0.75;exitDx=0;exitDy=0;entryX=0.25;entryY=0;entryDx=0;entryDy=0;endArrow=open;endFill=0;" edge="1" parent="1" source="cG1cPqBJCj5mjhicXPr7-3" target="cG1cPqBJCj5mjhicXPr7-24">
          <mxGeometry relative="1" as="geometry">
            <Array as="points">
              <mxPoint x="365" y="10" />
              <mxPoint x="615" y="10" />
            </Array>
          </mxGeometry>
        </mxCell>
        <mxCell id="cG1cPqBJCj5mjhicXPr7-3" value="&lt;p style=&quot;margin:0px;margin-top:4px;text-align:center;&quot;&gt;&lt;br&gt;&lt;b&gt;Abxervyer&lt;/b&gt;&lt;/p&gt;" style="verticalAlign=top;align=left;overflow=fill;fontSize=12;fontFamily=Helvetica;html=1;whiteSpace=wrap;" vertex="1" parent="1">
          <mxGeometry x="225" y="-70" width="140" height="50" as="geometry" />
        </mxCell>
        <mxCell id="cG1cPqBJCj5mjhicXPr7-4" value="&lt;p style=&quot;margin:0px;margin-top:4px;text-align:center;&quot;&gt;&lt;br&gt;&lt;b&gt;AncientWoodsWeatherController&lt;/b&gt;&lt;/p&gt;" style="verticalAlign=top;align=left;overflow=fill;fontSize=12;fontFamily=Helvetica;html=1;whiteSpace=wrap;" vertex="1" parent="1">
          <mxGeometry x="195" y="50" width="230" height="70" as="geometry" />
        </mxCell>
        <mxCell id="cG1cPqBJCj5mjhicXPr7-19" style="edgeStyle=orthogonalEdgeStyle;rounded=0;orthogonalLoop=1;jettySize=auto;html=1;exitX=0.5;exitY=0;exitDx=0;exitDy=0;entryX=0.5;entryY=1;entryDx=0;entryDy=0;dashed=1;endArrow=block;endFill=0;" edge="1" parent="1" source="cG1cPqBJCj5mjhicXPr7-5" target="cG1cPqBJCj5mjhicXPr7-7">
          <mxGeometry relative="1" as="geometry" />
        </mxCell>
        <mxCell id="cG1cPqBJCj5mjhicXPr7-44" style="edgeStyle=orthogonalEdgeStyle;rounded=0;orthogonalLoop=1;jettySize=auto;html=1;exitX=0;exitY=0.5;exitDx=0;exitDy=0;entryX=0;entryY=0.5;entryDx=0;entryDy=0;endArrow=open;endFill=0;" edge="1" parent="1" source="cG1cPqBJCj5mjhicXPr7-5" target="cG1cPqBJCj5mjhicXPr7-43">
          <mxGeometry relative="1" as="geometry" />
        </mxCell>
        <mxCell id="cG1cPqBJCj5mjhicXPr7-45" style="edgeStyle=orthogonalEdgeStyle;rounded=0;orthogonalLoop=1;jettySize=auto;html=1;exitX=0;exitY=0.25;exitDx=0;exitDy=0;entryX=0;entryY=0.5;entryDx=0;entryDy=0;endArrow=open;endFill=0;" edge="1" parent="1" source="cG1cPqBJCj5mjhicXPr7-5" target="cG1cPqBJCj5mjhicXPr7-42">
          <mxGeometry relative="1" as="geometry">
            <Array as="points">
              <mxPoint x="110" y="330" />
              <mxPoint x="10" y="330" />
              <mxPoint x="10" y="-160" />
            </Array>
          </mxGeometry>
        </mxCell>
        <mxCell id="cG1cPqBJCj5mjhicXPr7-5" value="&lt;p style=&quot;margin:0px;margin-top:4px;text-align:center;&quot;&gt;&lt;br&gt;&lt;b&gt;RainyForestWeather&lt;/b&gt;&lt;/p&gt;" style="verticalAlign=top;align=left;overflow=fill;fontSize=12;fontFamily=Helvetica;html=1;whiteSpace=wrap;" vertex="1" parent="1">
          <mxGeometry x="110" y="300" width="140" height="60" as="geometry" />
        </mxCell>
        <mxCell id="cG1cPqBJCj5mjhicXPr7-21" style="edgeStyle=orthogonalEdgeStyle;rounded=0;orthogonalLoop=1;jettySize=auto;html=1;exitX=0.5;exitY=0;exitDx=0;exitDy=0;entryX=0.5;entryY=1;entryDx=0;entryDy=0;endArrow=none;endFill=0;dashed=1;" edge="1" parent="1" source="cG1cPqBJCj5mjhicXPr7-6" target="cG1cPqBJCj5mjhicXPr7-7">
          <mxGeometry relative="1" as="geometry" />
        </mxCell>
        <mxCell id="cG1cPqBJCj5mjhicXPr7-47" style="edgeStyle=orthogonalEdgeStyle;rounded=0;orthogonalLoop=1;jettySize=auto;html=1;entryX=0.75;entryY=0;entryDx=0;entryDy=0;endArrow=open;endFill=0;" edge="1" parent="1" source="cG1cPqBJCj5mjhicXPr7-6" target="cG1cPqBJCj5mjhicXPr7-42">
          <mxGeometry relative="1" as="geometry">
            <Array as="points">
              <mxPoint x="750" y="330" />
              <mxPoint x="750" y="-210" />
              <mxPoint x="135" y="-210" />
            </Array>
          </mxGeometry>
        </mxCell>
        <mxCell id="cG1cPqBJCj5mjhicXPr7-62" style="edgeStyle=orthogonalEdgeStyle;rounded=0;orthogonalLoop=1;jettySize=auto;html=1;exitX=0.637;exitY=0.997;exitDx=0;exitDy=0;exitPerimeter=0;endArrow=open;endFill=0;" edge="1" parent="1" source="cG1cPqBJCj5mjhicXPr7-6" target="cG1cPqBJCj5mjhicXPr7-41">
          <mxGeometry relative="1" as="geometry">
            <Array as="points">
              <mxPoint x="429" y="570" />
              <mxPoint x="429" y="570" />
            </Array>
          </mxGeometry>
        </mxCell>
        <mxCell id="cG1cPqBJCj5mjhicXPr7-6" value="&lt;p style=&quot;margin:0px;margin-top:4px;text-align:center;&quot;&gt;&lt;br&gt;&lt;b&gt;SunnyForestWeather&lt;/b&gt;&lt;/p&gt;" style="verticalAlign=top;align=left;overflow=fill;fontSize=12;fontFamily=Helvetica;html=1;whiteSpace=wrap;" vertex="1" parent="1">
          <mxGeometry x="340" y="300" width="140" height="60" as="geometry" />
        </mxCell>
        <mxCell id="cG1cPqBJCj5mjhicXPr7-67" style="edgeStyle=orthogonalEdgeStyle;rounded=0;orthogonalLoop=1;jettySize=auto;html=1;exitX=1;exitY=0.5;exitDx=0;exitDy=0;entryX=1;entryY=0.5;entryDx=0;entryDy=0;endArrow=open;endFill=0;dashed=1;" edge="1" parent="1" source="cG1cPqBJCj5mjhicXPr7-7" target="cG1cPqBJCj5mjhicXPr7-23">
          <mxGeometry relative="1" as="geometry">
            <Array as="points">
              <mxPoint x="790" y="205" />
              <mxPoint x="790" y="-47" />
            </Array>
          </mxGeometry>
        </mxCell>
        <mxCell id="cG1cPqBJCj5mjhicXPr7-7" value="«interface»&lt;br&gt;&lt;b&gt;Weather&lt;/b&gt;" style="html=1;whiteSpace=wrap;" vertex="1" parent="1">
          <mxGeometry x="240" y="180" width="110" height="50" as="geometry" />
        </mxCell>
        <mxCell id="cG1cPqBJCj5mjhicXPr7-8" value="«abstract»&lt;br&gt;&lt;b&gt;EnemyActor&lt;/b&gt;" style="html=1;whiteSpace=wrap;" vertex="1" parent="1">
          <mxGeometry x="235" y="-190" width="120" height="60" as="geometry" />
        </mxCell>
        <mxCell id="cG1cPqBJCj5mjhicXPr7-10" style="edgeStyle=orthogonalEdgeStyle;rounded=0;orthogonalLoop=1;jettySize=auto;html=1;entryX=0.437;entryY=0.014;entryDx=0;entryDy=0;entryPerimeter=0;endArrow=open;endFill=0;" edge="1" parent="1" source="cG1cPqBJCj5mjhicXPr7-3" target="cG1cPqBJCj5mjhicXPr7-4">
          <mxGeometry relative="1" as="geometry" />
        </mxCell>
        <mxCell id="cG1cPqBJCj5mjhicXPr7-11" value="1" style="text;html=1;align=center;verticalAlign=middle;resizable=0;points=[];autosize=1;strokeColor=none;fillColor=none;" vertex="1" parent="1">
          <mxGeometry x="295" y="-22" width="30" height="30" as="geometry" />
        </mxCell>
        <mxCell id="cG1cPqBJCj5mjhicXPr7-12" value="1" style="text;html=1;align=center;verticalAlign=middle;resizable=0;points=[];autosize=1;strokeColor=none;fillColor=none;" vertex="1" parent="1">
          <mxGeometry x="295" y="20" width="30" height="30" as="geometry" />
        </mxCell>
        <mxCell id="cG1cPqBJCj5mjhicXPr7-13" value="has" style="text;html=1;align=center;verticalAlign=middle;resizable=0;points=[];autosize=1;strokeColor=none;fillColor=none;" vertex="1" parent="1">
          <mxGeometry x="300" width="40" height="30" as="geometry" />
        </mxCell>
        <mxCell id="cG1cPqBJCj5mjhicXPr7-15" style="edgeStyle=orthogonalEdgeStyle;rounded=0;orthogonalLoop=1;jettySize=auto;html=1;entryX=0.636;entryY=-0.036;entryDx=0;entryDy=0;entryPerimeter=0;endArrow=open;endFill=0;" edge="1" parent="1" source="cG1cPqBJCj5mjhicXPr7-4" target="cG1cPqBJCj5mjhicXPr7-7">
          <mxGeometry relative="1" as="geometry" />
        </mxCell>
        <mxCell id="cG1cPqBJCj5mjhicXPr7-16" value="1" style="text;html=1;align=center;verticalAlign=middle;resizable=0;points=[];autosize=1;strokeColor=none;fillColor=none;" vertex="1" parent="1">
          <mxGeometry x="310" y="120" width="30" height="30" as="geometry" />
        </mxCell>
        <mxCell id="cG1cPqBJCj5mjhicXPr7-17" value="0...*" style="text;html=1;align=center;verticalAlign=middle;resizable=0;points=[];autosize=1;strokeColor=none;fillColor=none;" vertex="1" parent="1">
          <mxGeometry x="310" y="150" width="40" height="30" as="geometry" />
        </mxCell>
        <mxCell id="cG1cPqBJCj5mjhicXPr7-18" value="keeps" style="text;html=1;align=center;verticalAlign=middle;resizable=0;points=[];autosize=1;strokeColor=none;fillColor=none;" vertex="1" parent="1">
          <mxGeometry x="250" y="140" width="60" height="30" as="geometry" />
        </mxCell>
        <mxCell id="cG1cPqBJCj5mjhicXPr7-23" value="&lt;p style=&quot;margin:0px;margin-top:4px;text-align:center;&quot;&gt;&lt;br&gt;&lt;b&gt;GameMap&lt;/b&gt;&lt;/p&gt;" style="verticalAlign=top;align=left;overflow=fill;fontSize=12;fontFamily=Helvetica;html=1;whiteSpace=wrap;" vertex="1" parent="1">
          <mxGeometry x="580" y="-77.5" width="140" height="60" as="geometry" />
        </mxCell>
        <mxCell id="cG1cPqBJCj5mjhicXPr7-25" style="edgeStyle=orthogonalEdgeStyle;rounded=0;orthogonalLoop=1;jettySize=auto;html=1;entryX=0.5;entryY=1;entryDx=0;entryDy=0;endArrow=block;endFill=0;" edge="1" parent="1" source="cG1cPqBJCj5mjhicXPr7-24" target="cG1cPqBJCj5mjhicXPr7-23">
          <mxGeometry relative="1" as="geometry" />
        </mxCell>
        <mxCell id="cG1cPqBJCj5mjhicXPr7-63" style="edgeStyle=orthogonalEdgeStyle;rounded=0;orthogonalLoop=1;jettySize=auto;html=1;exitX=0.5;exitY=1;exitDx=0;exitDy=0;entryX=1;entryY=0.5;entryDx=0;entryDy=0;endArrow=open;endFill=0;dashed=1;" edge="1" parent="1" source="cG1cPqBJCj5mjhicXPr7-24" target="cG1cPqBJCj5mjhicXPr7-56">
          <mxGeometry relative="1" as="geometry" />
        </mxCell>
        <mxCell id="cG1cPqBJCj5mjhicXPr7-64" style="edgeStyle=orthogonalEdgeStyle;rounded=0;orthogonalLoop=1;jettySize=auto;html=1;exitX=1;exitY=0.5;exitDx=0;exitDy=0;entryX=1;entryY=0.5;entryDx=0;entryDy=0;endArrow=open;endFill=0;dashed=1;" edge="1" parent="1" source="cG1cPqBJCj5mjhicXPr7-24" target="cG1cPqBJCj5mjhicXPr7-8">
          <mxGeometry relative="1" as="geometry" />
        </mxCell>
        <mxCell id="cG1cPqBJCj5mjhicXPr7-24" value="&lt;p style=&quot;margin:0px;margin-top:4px;text-align:center;&quot;&gt;&lt;br&gt;&lt;b&gt;ForestGameMap&lt;/b&gt;&lt;/p&gt;" style="verticalAlign=top;align=left;overflow=fill;fontSize=12;fontFamily=Helvetica;html=1;whiteSpace=wrap;" vertex="1" parent="1">
          <mxGeometry x="580" y="47.5" width="140" height="60" as="geometry" />
        </mxCell>
        <mxCell id="cG1cPqBJCj5mjhicXPr7-26" style="edgeStyle=orthogonalEdgeStyle;rounded=0;orthogonalLoop=1;jettySize=auto;html=1;exitX=1;exitY=0.5;exitDx=0;exitDy=0;entryX=0;entryY=1;entryDx=0;entryDy=0;endArrow=open;endFill=0;" edge="1" parent="1" source="cG1cPqBJCj5mjhicXPr7-4" target="cG1cPqBJCj5mjhicXPr7-23">
          <mxGeometry relative="1" as="geometry">
            <Array as="points">
              <mxPoint x="550" y="85" />
              <mxPoint x="550" y="-17" />
            </Array>
          </mxGeometry>
        </mxCell>
        <mxCell id="cG1cPqBJCj5mjhicXPr7-27" value="1" style="text;html=1;align=center;verticalAlign=middle;resizable=0;points=[];autosize=1;strokeColor=none;fillColor=none;" vertex="1" parent="1">
          <mxGeometry x="420" y="50" width="30" height="30" as="geometry" />
        </mxCell>
        <mxCell id="cG1cPqBJCj5mjhicXPr7-28" value="0...*" style="text;html=1;align=center;verticalAlign=middle;resizable=0;points=[];autosize=1;strokeColor=none;fillColor=none;" vertex="1" parent="1">
          <mxGeometry x="530" y="-47.5" width="40" height="30" as="geometry" />
        </mxCell>
        <mxCell id="cG1cPqBJCj5mjhicXPr7-29" value="keeps" style="text;html=1;align=center;verticalAlign=middle;resizable=0;points=[];autosize=1;strokeColor=none;fillColor=none;" vertex="1" parent="1">
          <mxGeometry x="460" y="88" width="60" height="30" as="geometry" />
        </mxCell>
        <mxCell id="cG1cPqBJCj5mjhicXPr7-32" value="1" style="text;html=1;align=center;verticalAlign=middle;resizable=0;points=[];autosize=1;strokeColor=none;fillColor=none;" vertex="1" parent="1">
          <mxGeometry x="365" y="-92" width="30" height="30" as="geometry" />
        </mxCell>
        <mxCell id="cG1cPqBJCj5mjhicXPr7-33" value="1" style="text;html=1;align=center;verticalAlign=middle;resizable=0;points=[];autosize=1;strokeColor=none;fillColor=none;" vertex="1" parent="1">
          <mxGeometry x="550" y="-82" width="30" height="30" as="geometry" />
        </mxCell>
        <mxCell id="cG1cPqBJCj5mjhicXPr7-35" value="has" style="text;html=1;align=center;verticalAlign=middle;resizable=0;points=[];autosize=1;strokeColor=none;fillColor=none;" vertex="1" parent="1">
          <mxGeometry x="450" y="-80" width="40" height="30" as="geometry" />
        </mxCell>
        <mxCell id="cG1cPqBJCj5mjhicXPr7-37" value="1" style="text;html=1;align=center;verticalAlign=middle;resizable=0;points=[];autosize=1;strokeColor=none;fillColor=none;" vertex="1" parent="1">
          <mxGeometry x="365" y="-20" width="30" height="30" as="geometry" />
        </mxCell>
        <mxCell id="cG1cPqBJCj5mjhicXPr7-38" value="0...*" style="text;html=1;align=center;verticalAlign=middle;resizable=0;points=[];autosize=1;strokeColor=none;fillColor=none;" vertex="1" parent="1">
          <mxGeometry x="580" y="17.5" width="40" height="30" as="geometry" />
        </mxCell>
        <mxCell id="cG1cPqBJCj5mjhicXPr7-39" value="has" style="text;html=1;align=center;verticalAlign=middle;resizable=0;points=[];autosize=1;strokeColor=none;fillColor=none;" vertex="1" parent="1">
          <mxGeometry x="460" y="-22" width="40" height="30" as="geometry" />
        </mxCell>
        <mxCell id="cG1cPqBJCj5mjhicXPr7-59" style="edgeStyle=orthogonalEdgeStyle;rounded=0;orthogonalLoop=1;jettySize=auto;html=1;exitX=0.5;exitY=0;exitDx=0;exitDy=0;entryX=0.5;entryY=1;entryDx=0;entryDy=0;endArrow=block;endFill=0;" edge="1" parent="1" source="cG1cPqBJCj5mjhicXPr7-40" target="cG1cPqBJCj5mjhicXPr7-56">
          <mxGeometry relative="1" as="geometry">
            <Array as="points">
              <mxPoint x="200" y="600" />
              <mxPoint x="305" y="600" />
            </Array>
          </mxGeometry>
        </mxCell>
        <mxCell id="cG1cPqBJCj5mjhicXPr7-40" value="&lt;p style=&quot;margin:0px;margin-top:4px;text-align:center;&quot;&gt;&lt;br&gt;&lt;b&gt;Hut&lt;/b&gt;&lt;/p&gt;" style="verticalAlign=top;align=left;overflow=fill;fontSize=12;fontFamily=Helvetica;html=1;whiteSpace=wrap;" vertex="1" parent="1">
          <mxGeometry x="130" y="640" width="140" height="60" as="geometry" />
        </mxCell>
        <mxCell id="cG1cPqBJCj5mjhicXPr7-60" style="edgeStyle=orthogonalEdgeStyle;rounded=0;orthogonalLoop=1;jettySize=auto;html=1;endArrow=none;endFill=0;" edge="1" parent="1" source="cG1cPqBJCj5mjhicXPr7-41">
          <mxGeometry relative="1" as="geometry">
            <mxPoint x="200" y="600" as="targetPoint" />
            <Array as="points">
              <mxPoint x="410" y="600" />
              <mxPoint x="201" y="600" />
            </Array>
          </mxGeometry>
        </mxCell>
        <mxCell id="cG1cPqBJCj5mjhicXPr7-41" value="&lt;p style=&quot;margin:0px;margin-top:4px;text-align:center;&quot;&gt;&lt;br&gt;&lt;b&gt;Bush&lt;/b&gt;&lt;/p&gt;" style="verticalAlign=top;align=left;overflow=fill;fontSize=12;fontFamily=Helvetica;html=1;whiteSpace=wrap;" vertex="1" parent="1">
          <mxGeometry x="340" y="640" width="140" height="60" as="geometry" />
        </mxCell>
        <mxCell id="cG1cPqBJCj5mjhicXPr7-42" value="&lt;p style=&quot;margin:0px;margin-top:4px;text-align:center;&quot;&gt;&lt;br&gt;&lt;b&gt;RedWolf&lt;/b&gt;&lt;/p&gt;" style="verticalAlign=top;align=left;overflow=fill;fontSize=12;fontFamily=Helvetica;html=1;whiteSpace=wrap;" vertex="1" parent="1">
          <mxGeometry x="30" y="-190" width="140" height="60" as="geometry" />
        </mxCell>
        <mxCell id="cG1cPqBJCj5mjhicXPr7-43" value="&lt;p style=&quot;margin:0px;margin-top:4px;text-align:center;&quot;&gt;&lt;br&gt;&lt;b&gt;Forest Keeper&lt;/b&gt;&lt;/p&gt;" style="verticalAlign=top;align=left;overflow=fill;fontSize=12;fontFamily=Helvetica;html=1;whiteSpace=wrap;" vertex="1" parent="1">
          <mxGeometry x="30" y="-70" width="140" height="60" as="geometry" />
        </mxCell>
        <mxCell id="cG1cPqBJCj5mjhicXPr7-48" value="1" style="text;html=1;align=center;verticalAlign=middle;resizable=0;points=[];autosize=1;strokeColor=none;fillColor=none;" vertex="1" parent="1">
          <mxGeometry x="80" y="300" width="30" height="30" as="geometry" />
        </mxCell>
        <mxCell id="cG1cPqBJCj5mjhicXPr7-49" value="1" style="text;html=1;align=center;verticalAlign=middle;resizable=0;points=[];autosize=1;strokeColor=none;fillColor=none;" vertex="1" parent="1">
          <mxGeometry x="475" y="298" width="30" height="30" as="geometry" />
        </mxCell>
        <mxCell id="cG1cPqBJCj5mjhicXPr7-50" value="1" style="text;html=1;align=center;verticalAlign=middle;resizable=0;points=[];autosize=1;strokeColor=none;fillColor=none;" vertex="1" parent="1">
          <mxGeometry x="115" y="-242" width="30" height="30" as="geometry" />
        </mxCell>
        <mxCell id="cG1cPqBJCj5mjhicXPr7-51" value="1" style="text;html=1;align=center;verticalAlign=middle;resizable=0;points=[];autosize=1;strokeColor=none;fillColor=none;" vertex="1" parent="1">
          <mxGeometry x="5" y="-202" width="30" height="30" as="geometry" />
        </mxCell>
        <mxCell id="cG1cPqBJCj5mjhicXPr7-52" value="1" style="text;html=1;align=center;verticalAlign=middle;resizable=0;points=[];autosize=1;strokeColor=none;fillColor=none;" vertex="1" parent="1">
          <mxGeometry x="5" y="-82" width="30" height="30" as="geometry" />
        </mxCell>
        <mxCell id="cG1cPqBJCj5mjhicXPr7-53" value="keeps" style="text;html=1;align=center;verticalAlign=middle;resizable=0;points=[];autosize=1;strokeColor=none;fillColor=none;" vertex="1" parent="1">
          <mxGeometry y="118" width="60" height="30" as="geometry" />
        </mxCell>
        <mxCell id="cG1cPqBJCj5mjhicXPr7-55" value="keeps" style="text;html=1;align=center;verticalAlign=middle;resizable=0;points=[];autosize=1;strokeColor=none;fillColor=none;" vertex="1" parent="1">
          <mxGeometry x="740" y="178" width="60" height="30" as="geometry" />
        </mxCell>
        <mxCell id="cG1cPqBJCj5mjhicXPr7-56" value="&lt;p style=&quot;margin:0px;margin-top:4px;text-align:center;&quot;&gt;&lt;br&gt;&lt;b&gt;SpawningGround&lt;/b&gt;&lt;/p&gt;" style="verticalAlign=top;align=left;overflow=fill;fontSize=12;fontFamily=Helvetica;html=1;whiteSpace=wrap;" vertex="1" parent="1">
          <mxGeometry x="235" y="490" width="140" height="60" as="geometry" />
        </mxCell>
        <mxCell id="cG1cPqBJCj5mjhicXPr7-61" style="edgeStyle=orthogonalEdgeStyle;rounded=0;orthogonalLoop=1;jettySize=auto;html=1;exitX=0.5;exitY=1;exitDx=0;exitDy=0;entryX=0.36;entryY=0.023;entryDx=0;entryDy=0;entryPerimeter=0;endArrow=open;endFill=0;" edge="1" parent="1" source="cG1cPqBJCj5mjhicXPr7-5" target="cG1cPqBJCj5mjhicXPr7-40">
          <mxGeometry relative="1" as="geometry" />
        </mxCell>
        <mxCell id="cG1cPqBJCj5mjhicXPr7-66" style="edgeStyle=orthogonalEdgeStyle;rounded=0;orthogonalLoop=1;jettySize=auto;html=1;exitX=1;exitY=0.75;exitDx=0;exitDy=0;entryX=0.409;entryY=0.992;entryDx=0;entryDy=0;entryPerimeter=0;endArrow=open;endFill=0;dashed=1;" edge="1" parent="1" source="cG1cPqBJCj5mjhicXPr7-4" target="cG1cPqBJCj5mjhicXPr7-24">
          <mxGeometry relative="1" as="geometry">
            <Array as="points">
              <mxPoint x="425" y="128" />
              <mxPoint x="637" y="128" />
            </Array>
          </mxGeometry>
        </mxCell>
        <mxCell id="cG1cPqBJCj5mjhicXPr7-70" value="game.ground" style="text;html=1;align=center;verticalAlign=middle;resizable=0;points=[];autosize=1;strokeColor=none;fillColor=none;" vertex="1" parent="1">
          <mxGeometry x="92.5" y="480" width="90" height="30" as="geometry" />
        </mxCell>
        <mxCell id="cG1cPqBJCj5mjhicXPr7-72" value="game.weather" style="text;html=1;align=center;verticalAlign=middle;resizable=0;points=[];autosize=1;strokeColor=none;fillColor=none;" vertex="1" parent="1">
          <mxGeometry x="100" y="40" width="100" height="30" as="geometry" />
        </mxCell>
        <mxCell id="cG1cPqBJCj5mjhicXPr7-74" value="game.actor" style="text;html=1;align=center;verticalAlign=middle;resizable=0;points=[];autosize=1;strokeColor=none;fillColor=none;" vertex="1" parent="1">
          <mxGeometry x="10" y="-242" width="80" height="30" as="geometry" />
        </mxCell>
        <mxCell id="cG1cPqBJCj5mjhicXPr7-77" value="edu.monash.fit2099.engine.positions." style="text;html=1;align=center;verticalAlign=middle;resizable=0;points=[];autosize=1;strokeColor=none;fillColor=none;" vertex="1" parent="1">
          <mxGeometry x="507.5" y="-122" width="220" height="30" as="geometry" />
        </mxCell>
        <mxCell id="cG1cPqBJCj5mjhicXPr7-79" value="game.extended" style="text;html=1;align=center;verticalAlign=middle;resizable=0;points=[];autosize=1;strokeColor=none;fillColor=none;" vertex="1" parent="1">
          <mxGeometry x="530" y="127.75" width="110" height="30" as="geometry" />
        </mxCell>
      </root>
    </mxGraphModel>
  </diagram>
</mxfile>
